# xmcd database file
#
# Track frame offsets:
# 150
# 12744
# 24610
# 35413
# 46024
# 58788
# 69898
# 83312
# 94580
# 108919
# 120229
# 133842
# 147838
# 160022
# 171121
#
# Disc length: 2430 seconds
#
# Revision: 0
# Processed by: cddbd v1.5.2PL0 Copyright (c) Steve Scherf et al.
# Submitted via: CD-Runner 2006.50
#
DISCID=b4097c0f
DTITLE=Jim Reeves - Mexican Joe
DYEAR=1900
DGENRE=Country
TTITLE0=Bimbo
TTITLE1=Mexican Joe
TTITLE2=The Wilder Your Heart Beats The Sweeter You Love
TTITLE3=Then I'll Stop Loving You
TTITLE4=Where Does A Broken Heart Go
TTITLE5=Butterfly Love
TTITLE6=El Rancho Del Rio
TTITLE7=I Could Cry
TTITLE8=It's Hard To Love Just One
TTITLE9=Just Call Me Lonesome
TTITLE10=Wagon Load Of Love
TTITLE11=What Were You Doing Last Night
TTITLE12=I've Never Been So Blue
TTITLE13=My Heart's Like A Welcome Mat
TTITLE14=Teardrops Of Regret
EXTD=
EXTT0=
EXTT1=
EXTT2=
EXTT3=
EXTT4=
EXTT5=
EXTT6=
EXTT7=
EXTT8=
EXTT9=
EXTT10=
EXTT11=
EXTT12=
EXTT13=
EXTT14=
PLAYORDER=
